<?xml version="1.0" encoding="UTF-8"?>
<svg width="128px" height="128px" enable-background="new 0 0 128 128" version="1.1" viewBox="0 0 128 128" xml:space="preserve" xmlns="http://www.w3.org/2000/svg"><path d="m73.697 1h-33.03c-6.669-4e-3 -12.771 2.723-17.134 7.097-4.374 4.362-7.101 10.465-7.097 17.134v77.54c-4e-3 6.669 2.723 12.771 7.097 17.132 4.363 4.375 10.465 7.101 17.134 7.098h46.667c14.214-1.0658 24.037-11.331 24.231-24.23v-63.906zm13.949 33.748c-2.688-0.101-5.063-1.199-6.852-2.978-1.776-1.789-2.877-4.164-2.977-6.851zm6.922 75.256c-1.874 1.862-4.387 2.992-7.234 2.996h-46.667c-2.847-4e-3 -5.361-1.134-7.234-2.996-1.862-1.874-2.993-4.387-2.996-7.233v-77.54c3e-3 -2.847 1.134-5.361 2.996-7.235 1.874-1.862 4.387-2.992 7.234-2.996h23.131v9.536c-4e-3 6.669 2.724 12.771 7.097 17.134 4.363 4.374 10.466 7.102 17.135 7.098h9.535v54.003c-4e-3 2.846-1.136 5.359-2.997 7.233z" fill="#232323"/><path transform="translate(-4.1514 -7.6108)" d="m89.023 79.568-46.575 11.207 13.582-45.938z" fill="#ff6b30"/><path d="m77.031 94.328-17.528-3.6901"/><path d="m20.974 7.1571c-0.02356 0.49766-0.13737 2.847-0.18945 5.1967-0.05115 2.3075-0.16722 8.1957 0.72284 13.665 0.43023 2.6436 1.0953 5.2753 2.1267 7.7374 0.93886 2.2412 2.1714 4.3218 3.8137 6.2035 0.0092 0.0105 0.01831 0.02102 0.02743 0.03156 1.4468 1.672 3.1194 3.1304 4.9946 4.4098 1.9609 1.338 4.0975 2.4484 6.3211 3.3761 6.037 2.5187 12.515 3.5622 15.453 3.9904l-2.8598 19.622c-3.1737-0.46255-11.75-1.7745-20.229-5.312-3.2282-1.3469-6.5979-3.0697-9.8619-5.2967-3.1462-2.1467-6.1376-4.7222-8.8132-7.8141l0.02743 0.03156c-3.2113-3.6795-5.5106-7.6351-7.1634-11.581-1.7869-4.2657-2.802-8.4827-3.4092-12.214-1.218-7.484-1.025-15.054-0.97545-17.289 0.058338-2.6328 0.18413-5.2172 0.20674-5.6949z" fill="#ff6b30"/></svg>
